<svg width="426" height="65" viewBox="0 0 426 65" fill="none" xmlns="http://www.w3.org/2000/svg">
<path d="M2 63.0006C2 63.0006 99.5 16.3784 205.5 11.9145C311.5 7.4506 424 63.0006 424 63.0006" stroke="white" stroke-width="4" stroke-linecap="round" stroke-dasharray="2 12"/>
<path d="M285.887 31.1289C286.358 31.2249 286.842 31.0651 287.186 30.7272L295.395 22.1837L302.58 23.6507C303.664 23.872 304.725 23.1769 304.955 22.0945C305.185 21.012 304.496 19.9595 303.412 19.7381L296.226 18.2711L292.181 7.2256C292.016 6.78366 291.625 6.44518 291.155 6.34915C290.24 6.16244 289.385 6.91327 289.471 7.85613L290.348 17.0708L283.163 15.6038L281.898 12.8962C281.816 12.7026 281.64 12.5713 281.431 12.5286L280.66 12.3713C280.229 12.2832 279.827 12.6366 279.856 13.0779L280.134 17.0266L278.27 20.5379C278.064 20.9313 278.289 21.4126 278.72 21.5006L279.49 21.658C279.699 21.7007 279.915 21.6494 280.068 21.5039L282.331 19.5164L289.516 20.9834L284.958 29.0885C284.495 29.9193 284.973 30.9422 285.887 31.1289Z" fill="white"/>
</svg>
