<svg width="234" height="63" viewBox="0 0 234 63" fill="none" xmlns="http://www.w3.org/2000/svg">
<path d="M15 48.5571C15 48.5571 68.5 16.5572 117 16.5571C165.5 16.5571 215 47.0802 215 47.0802" stroke="white" stroke-width="4" stroke-linecap="round" stroke-dasharray="2 12"/>
<path d="M134.856 30.4311C135.327 30.5233 135.812 30.3599 136.157 30.0199L144.375 21.426L151.572 22.834C152.658 23.0465 153.721 22.3442 153.951 21.2617C154.181 20.1792 153.49 19.1339 152.404 18.9214L145.207 17.5134L141.152 6.51826C140.987 6.07837 140.594 5.74353 140.123 5.65137C139.207 5.47217 138.351 6.22846 138.438 7.16908L139.319 16.3614L132.122 14.9534L130.854 12.2603C130.773 12.0677 130.596 11.938 130.386 11.897L129.614 11.746C129.182 11.6615 128.78 12.0174 128.809 12.4578L129.089 16.3977L127.223 19.9178C127.017 20.3121 127.242 20.7909 127.674 20.8754L128.446 21.0264C128.655 21.0674 128.871 21.0145 129.025 20.868L131.29 18.866L138.487 20.274L133.925 28.4014C133.461 29.2345 133.94 30.2519 134.856 30.4311Z" fill="white"/>
<circle cx="6" cy="57" r="5" stroke="white" stroke-width="2"/>
<circle cx="228" cy="57" r="5" stroke="white" stroke-width="2"/>
</svg>
