<svg width="18" height="18" viewBox="0 0 18 18" fill="none" xmlns="http://www.w3.org/2000/svg">
<path fill-rule="evenodd" clip-rule="evenodd" d="M11.8084 5.87439L16.6484 6.29439C17.5284 6.36439 17.8784 7.46439 17.2084 8.04439L13.5384 11.2244L14.6384 15.9544C14.8384 16.8144 13.9084 17.4944 13.1484 17.0344L8.99836 14.5244L4.84836 17.0244C4.08836 17.4844 3.15836 16.8044 3.35836 15.9444L4.45836 11.2244L0.788364 8.04439C0.118364 7.46439 0.478364 6.36439 1.35836 6.29439L6.18836 5.88439L8.07836 1.42439C8.41836 0.614395 9.57836 0.614395 9.91836 1.42439L11.8084 5.87439ZM5.23836 14.9244L8.99836 12.6544L12.7684 14.9344L11.7684 10.6544L15.0884 7.77439L10.7084 7.39439L8.99836 3.35439L7.29836 7.38439L2.91836 7.76439L6.23836 10.6444L5.23836 14.9244Z" fill="#F2C94C"/>
</svg>
