<svg width="20" height="20" viewBox="0 0 20 20" fill="none" xmlns="http://www.w3.org/2000/svg">
<path d="M19.5705 12.6606C19.5687 12.3006 19.3772 11.9706 19.0762 11.7706L11.5437 7.08057L11.5173 1.58057C11.5133 0.750566 10.8401 0.0805664 10.0101 0.0805664C9.18011 0.0805664 8.51331 0.750566 8.51728 1.58057L8.54362 7.08057L1.05599 11.7706C0.756897 11.9606 0.568523 12.3006 0.570246 12.6606C0.573598 13.3606 1.25605 13.8706 1.93505 13.6606L8.56517 11.5806L8.5915 17.0806L6.79795 18.4306C6.66837 18.5206 6.59909 18.6706 6.59986 18.8306L6.60268 19.4206C6.60426 19.7506 6.92542 19.9906 7.24499 19.9006L10.1011 19.0806L12.9651 19.9006C13.2855 19.9906 13.6043 19.7506 13.6028 19.4206L13.5999 18.8306C13.5992 18.6706 13.5285 18.5206 13.398 18.4306L11.5915 17.0806L11.5652 11.5806L18.2152 13.6606C18.8962 13.8706 19.5738 13.3606 19.5705 12.6606Z" fill="currentColor"/>
</svg>
